# xmcd CD database file generated by Grip 2.94
# 
# Track frame offsets:
#       150
#       19637
#       31652
#       46517
#       68552
#       89882
#       100567
#       112277
#       126532
#       147887
#       164777
#       187575
#       199947
#       216137
#       234127
#       253327
# 
# Disc length: 3427 seconds
# 
# Revision: 3
# Processed by: cddbd v1.4b41PL1 Copyright (c) Steve Scherf et al.
# Submitted via: Grip 2.94
# 
DISCID=dd0d6110
DTITLE=The Blues Swingers - Who's Yo Daddy
DYEAR=1900
DGENRE=
TTITLE0=SwingTime
TTITLE1=Don't Go
TTITLE2=Nobody Likes the Woman I Love
TTITLE3=Switchin' In the Kitchen
TTITLE4=Is You Is, Or Is You Ain't My Baby
TTITLE5=You Better Be Sure
TTITLE6=Wine O Baby Boogie
TTITLE7=Woke Up This Morning
TTITLE8=Our Delight
TTITLE9=I Wanta' Party
TTITLE10=I Wanna' Talk ABout My Baby
TTITLE11=Hot Little Mama
TTITLE12=High Stakes Woman
TTITLE13=Corner Pocket
TTITLE14=Spin, Flip, and Dip
TTITLE15=BreakTime
EXTD=
EXTT0=
EXTT1=
EXTT2=
EXTT3=
EXTT4=
EXTT5=
EXTT6=
EXTT7=
EXTT8=
EXTT9=
EXTT10=
EXTT11=
EXTT12=
EXTT13=
EXTT14=
EXTT15=
PLAYORDER=
